<?xml version="1.0" encoding="UTF-8"?>
<svg id="Capa_1" data-name="Capa 1" xmlns="http://www.w3.org/2000/svg" version="1.1" viewBox="0 0 25 25">
  <defs>
    <style>
      .cls-1 {
        fill: #fff;
        stroke-width: 0px;
      }
    </style>
  </defs>
  <path class="cls-1" d="M25,6.6v13.02c-.03.09-.05.19-.08.28-.34,1.17-1.39,1.98-2.6,1.98-6.54,0-13.09,0-19.63,0-1.48,0-2.68-1.21-2.68-2.69,0-4.08,0-8.16,0-12.24,0-.1-.05-.24.05-.29.1-.05.19.07.27.13,3.31,2.21,6.63,4.42,9.94,6.62,1.44.96,3.04.96,4.47,0,2.27-1.51,4.53-3.02,6.8-4.53,1.15-.77,2.3-1.53,3.45-2.29Z"/>
  <path class="cls-1" d="M12.53,3.12c3.27,0,6.53-.01,9.8,0,1.13,0,1.93.57,2.45,1.57.1.19.08.31-.11.44-3.62,2.41-7.23,4.83-10.86,7.22-.84.55-1.76.55-2.6,0C7.59,9.96,3.99,7.54.37,5.14c-.2-.13-.22-.26-.12-.46.52-1,1.33-1.55,2.45-1.56,3.27-.02,6.55,0,9.82,0Z"/>
</svg>