<?xml version="1.0" encoding="UTF-8"?>
<svg id="Capa_1" data-name="Capa 1" xmlns="http://www.w3.org/2000/svg" version="1.1" viewBox="0 0 25 25">
  <defs>
    <style>
      .cls-1 {
        fill: #fff;
        stroke-width: 0px;
      }
    </style>
  </defs>
  <path class="cls-1" d="M24.98,15.67c-.16-.04-.22-.14-.29-.22-1.58-1.58-3.16-3.16-4.75-4.74-.82-.82-1.8-1.03-2.89-.65-.41.14-.76.39-1.03.73-1.47,1.85-2.94,3.71-4.41,5.56-.05.07-.1.13-.16.2q-.37.46-.77.05c-.75-.75-1.5-1.5-2.25-2.24-1.29-1.29-3.06-1.17-4.18.28-1.33,1.73-2.66,3.45-4,5.18-.06.07-.12.14-.18.21-.12-.07-.07-.18-.07-.26,0-5.14,0-10.28,0-15.43,0-1.34,1.22-2.55,2.56-2.55,6.62,0,13.24,0,19.85,0,1.36,0,2.57,1.21,2.57,2.57,0,3.69,0,7.37,0,11.06,0,.08,0,.16-.01.27ZM8.91,10.68c1.56-.04,2.66-1.18,2.67-2.67.01-1.43-1.22-2.64-2.64-2.61-1.5.03-2.65,1.15-2.64,2.66.01,1.51,1.16,2.56,2.6,2.62Z"/>
  <path class="cls-1" d="M15.64,23.21c-2.29,0-4.58,0-6.88,0-.1,0-.23.05-.28-.05-.06-.1.07-.18.13-.25,2.86-3.63,5.73-7.25,8.59-10.88.45-.57,1.03-.61,1.55-.1,2.03,2.02,4.06,4.05,6.09,6.08.11.11.16.23.16.4,0,.76,0,1.52,0,2.28-.02,1.31-1.22,2.51-2.54,2.52-2.27,0-4.55,0-6.82,0Z"/>
  <path class="cls-1" d="M4.21,23.21c-.54,0-1.08,0-1.61,0-.71,0-1.3-.31-1.81-.79-.17-.16-.16-.29-.02-.47,1.63-2.09,3.25-4.2,4.87-6.29.47-.61,1.04-.65,1.58-.11.88.87,1.74,1.75,2.62,2.61.15.15.15.26.02.42-1.18,1.48-2.35,2.97-3.52,4.45-.1.13-.21.19-.38.18-.58,0-1.17,0-1.75,0Z"/>
</svg>