<?xml version="1.0" encoding="UTF-8"?>
<svg id="Capa_1" data-name="Capa 1" xmlns="http://www.w3.org/2000/svg" version="1.1" viewBox="0 0 25 25">
  <defs>
    <style>
      .cls-1 {
        fill: #fff;
        stroke-width: 0px;
      }
    </style>
  </defs>
  <path class="cls-1" d="M12.49,0c.28,0,.45.16.51.52.1.59.19,1.19.29,1.78.4,2.4.8,4.79,1.2,7.19.03.2.07.4.09.6.02.2.13.28.32.32,1.48.24,2.96.49,4.44.73,1.71.28,3.42.56,5.13.85.35.06.52.24.52.51,0,.27-.17.44-.51.49-1.93.32-3.86.64-5.79.96-1.26.21-2.52.42-3.79.62-.21.03-.3.13-.33.33-.43,2.61-.86,5.21-1.29,7.82-.1.58-.19,1.15-.29,1.73-.06.36-.23.53-.5.53-.28,0-.45-.17-.51-.52-.4-2.38-.79-4.75-1.18-7.13-.13-.81-.27-1.63-.4-2.44-.03-.2-.13-.28-.32-.31-2.04-.34-4.08-.68-6.12-1.01-1.15-.19-2.31-.38-3.46-.57-.35-.06-.51-.22-.51-.48,0-.29.14-.45.5-.52.82-.14,1.65-.27,2.47-.41,2.37-.39,4.74-.79,7.11-1.18.2-.03.3-.13.33-.33.41-2.5.82-4.99,1.24-7.49.12-.69.23-1.39.35-2.08.06-.34.23-.5.49-.51Z"/>
  <path class="cls-1" d="M10.57,2.71c0,.24-.19.37-.45.44-.43.11-.86.24-1.27.41-2.94,1.25-4.83,3.42-5.69,6.5-.02.06-.03.13-.06.19-.11.27-.35.39-.6.3-.24-.08-.37-.32-.3-.58.23-.98.59-1.91,1.11-2.78,1.51-2.56,3.71-4.22,6.59-4.97.38-.1.66.1.67.49Z"/>
  <path class="cls-1" d="M2.66,14.44c.25,0,.41.15.5.48.24.93.6,1.81,1.11,2.63,1.36,2.19,3.29,3.61,5.77,4.29.06.02.13.03.19.05.27.11.4.35.32.6-.08.25-.32.38-.6.31-.8-.19-1.57-.46-2.29-.85-2.81-1.49-4.63-3.76-5.44-6.85-.1-.38.1-.67.44-.67Z"/>
  <path class="cls-1" d="M14.91,2.17c.35.06.69.16,1.02.28,3.54,1.28,5.83,3.74,6.84,7.38.11.38-.01.64-.3.72-.29.08-.52-.1-.62-.48-.96-3.37-3.09-5.64-6.41-6.77-.23-.08-.47-.12-.69-.21-.23-.09-.34-.29-.29-.54.05-.24.22-.35.46-.38Z"/>
  <path class="cls-1" d="M14.91,22.82c-.23-.02-.39-.13-.45-.35-.06-.22.02-.41.21-.53.08-.05.19-.08.29-.1,3.56-1.03,5.86-3.33,6.89-6.89.02-.05.03-.11.04-.16.11-.29.35-.42.61-.33.25.08.37.32.3.6-.21.88-.52,1.72-.96,2.51-1.48,2.66-3.7,4.38-6.63,5.18-.1.03-.2.05-.29.07Z"/>
  <path class="cls-1" d="M7.18,6.7c.15,0,.27.07.38.16.69.49,1.37.99,2.06,1.47.15.11.21.21.18.41-.14.92-.14.92-1.06,1.06-.17.02-.27,0-.38-.14-.5-.71-1.01-1.42-1.52-2.13-.12-.17-.19-.34-.08-.54.09-.17.23-.26.42-.28Z"/>
  <path class="cls-1" d="M16.4,9.82c-.3-.05-.6-.1-.9-.15-.11-.02-.15-.09-.17-.19-.02-.14-.02-.28-.07-.41-.18-.45.02-.7.39-.94.6-.38,1.17-.82,1.75-1.24.13-.09.26-.19.43-.18.38.02.59.43.37.76-.52.76-1.06,1.5-1.59,2.24-.05.07-.11.13-.21.11Z"/>
  <path class="cls-1" d="M18.3,17.79c0,.39-.41.61-.75.41-.23-.14-.44-.31-.66-.46-.51-.36-1.01-.73-1.52-1.08-.15-.1-.22-.2-.17-.39.06-.23.09-.47.12-.71.02-.16.09-.21.25-.24.94-.17.93-.18,1.49.6.35.5.71,1,1.07,1.49.09.12.16.25.17.38Z"/>
  <path class="cls-1" d="M7.19,18.28c-.18-.01-.32-.08-.41-.24-.1-.18-.08-.36.03-.52.27-.39.55-.77.82-1.16.24-.33.48-.66.71-1,.09-.14.19-.19.37-.16.95.14.94.14,1.09,1.1.03.17-.02.26-.14.35-.71.5-1.41,1-2.11,1.51-.11.08-.23.13-.36.14Z"/>
</svg>