<?xml version="1.0" encoding="UTF-8"?>
<svg id="Capa_1" data-name="Capa 1" xmlns="http://www.w3.org/2000/svg" version="1.1" viewBox="0 0 25 25">
  <defs>
    <style>
      .cls-1 {
        fill: #fff;
        stroke-width: 0px;
      }
    </style>
  </defs>
  <g id="HHsZrk">
    <path class="cls-1" d="M12.51,3.56c1.27,0,2.54,0,3.82,0,2.81,0,4.95,1.24,6.5,3.54.76,1.12,1.11,2.39,1.28,3.73.18,1.42.4,2.84.58,4.27.12.92.31,1.83.31,2.76,0,1.6-1.12,3.04-2.68,3.47-1.51.41-3.15-.25-3.95-1.65-.53-.93-.99-1.89-1.48-2.84-.24-.47-.49-.94-.72-1.41-.09-.19-.21-.25-.41-.25-2.16,0-4.33,0-6.49,0-.23,0-.34.09-.44.28-.66,1.3-1.33,2.59-2,3.89-.55,1.07-1.38,1.79-2.58,2.02-1.95.37-3.82-.93-4.19-2.89-.13-.71-.01-1.41.08-2.1.19-1.44.39-2.88.59-4.32.19-1.3.28-2.62.84-3.84,1.18-2.53,3.12-4.08,5.87-4.59.3-.06.61-.08.91-.07,1.38,0,2.77,0,4.15,0ZM5.39,10.69c.19,0,.37.01.56,0,.25-.02.35.06.34.32-.02.39,0,.78,0,1.17,0,.21.05.31.28.3.4-.02.8-.01,1.2,0,.2,0,.28-.06.28-.27-.01-.39.01-.78,0-1.17-.01-.26.06-.37.34-.35.4.02.8,0,1.2,0,.17,0,.26-.05.25-.24,0-.43,0-.85,0-1.28,0-.19-.09-.24-.26-.23-.4,0-.8,0-1.2,0-.25,0-.35-.06-.34-.33.02-.39,0-.78,0-1.17,0-.21-.05-.31-.28-.3-.4.02-.8.01-1.2,0-.2,0-.28.06-.28.27.01.39-.01.78,0,1.17.01.26-.06.37-.34.35-.4-.02-.8,0-1.2,0-.17,0-.26.05-.25.24,0,.43,0,.85,0,1.28,0,.16.06.24.23.23.22,0,.45,0,.67,0ZM17.85,8.58c.64,0,1.15-.51,1.15-1.14,0-.62-.53-1.16-1.15-1.15-.62,0-1.15.54-1.15,1.16,0,.64.51,1.14,1.15,1.14ZM16.61,9.81c0-.64-.51-1.15-1.15-1.14-.62,0-1.15.54-1.15,1.16,0,.63.54,1.15,1.16,1.14.64,0,1.14-.52,1.13-1.16ZM19.09,9.82c0,.64.51,1.15,1.15,1.15.62,0,1.15-.54,1.15-1.16,0-.63-.54-1.15-1.16-1.14-.64,0-1.14.51-1.13,1.16ZM17.85,11.06c-.64,0-1.15.5-1.15,1.14,0,.62.53,1.16,1.15,1.15.62,0,1.15-.54,1.15-1.16,0-.64-.51-1.14-1.15-1.14Z"/>
  </g>
</svg>