<?xml version="1.0" encoding="UTF-8"?>
<svg id="Capa_1" data-name="Capa 1" xmlns="http://www.w3.org/2000/svg" version="1.1" viewBox="0 0 25 25">
  <defs>
    <style>
      .cls-1 {
        fill: #fff;
        stroke-width: 0px;
      }
    </style>
  </defs>
  <g id="_7DnFEz" data-name="7DnFEz">
    <g>
      <path class="cls-1" d="M12.48,25c-2.83,0-5.66,0-8.49,0-1.88,0-3.2-1.8-2.55-3.56,1.56-4.27,4.59-6.91,9.07-7.72,5.7-1.03,11.23,2.28,13.06,7.7.61,1.8-.67,3.57-2.57,3.58-2.84,0-5.68,0-8.52,0Z"/>
      <path class="cls-1" d="M18.76,6.29c.06,3.38-2.83,6.27-6.29,6.25-3.35-.02-6.26-2.84-6.23-6.33C6.26,2.84,9.11-.04,12.59,0c3.39.04,6.25,2.9,6.18,6.29Z"/>
    </g>
  </g>
</svg>