<?xml version="1.0" encoding="UTF-8"?>
<svg id="Capa_1" data-name="Capa 1" xmlns="http://www.w3.org/2000/svg" version="1.1" viewBox="0 0 512 512">
  <defs>
    <style>
      .cls-1 {
        fill: #fff;
        stroke-width: 0px;
      }
    </style>
  </defs>
  <path class="cls-1" d="M498.2,222.7h0S289.3,13.8,289.3,13.8c-8.9-8.9-20.7-13.8-33.3-13.8s-24.4,4.9-33.3,13.8L13.9,222.6c0,0-.1.1-.2.2-18.3,18.4-18.2,48.2,0,66.6,8.4,8.4,19.4,13.2,31.3,13.7.5,0,1,0,1.5,0h8.3v153.7c0,30.4,24.7,55.2,55.2,55.2h81.7c8.3,0,15-6.7,15-15v-120.5c0-13.9,11.3-25.2,25.2-25.2h48.2c13.9,0,25.2,11.3,25.2,25.2v120.5c0,8.3,6.7,15,15,15h81.7c30.4,0,55.2-24.7,55.2-55.2v-153.7h7.7c12.6,0,24.4-4.9,33.3-13.8,18.4-18.4,18.4-48.3,0-66.6Z"/>
</svg>